# xmcd
#
# Track frame offsets: 
#        150
#        16092
#        27152
#        47092
#        64907
#        87760
#        101592
#        120437
#        144495
#        162765
#        175532
#        198087
#        211390
#        230815
#        245565
#        264232
#        276520
#        294067
#        315055
#
# Disc length: 4340 seconds
#
# Revision: 2
# Processed by: cddbd v1.5.1PL2 Copyright (c) Steve Scherf et al.
# Submitted via: ExactAudioCopy v0.95a5
#
DISCID=f610f213
DTITLE=Muddy Waters - After Hours
DYEAR=1900
DGENRE=Blues
TTITLE0=Blind Man Blues
TTITLE1=Key To The Highway
TTITLE2=Young Fashioned Ways
TTITLE3=I´m Gonna Move To The Outskirts Of Town
TTITLE4=Who´s Gonna Be Your Sweet Man When I´m Gone
TTITLE5=Walkin´ Blues
TTITLE6=I´m Ready
TTITLE7=Sad Sad Day
TTITLE8=I Don´t Know Why
TTITLE9=Can´t Get No Grindin´ (What´s The Matter With The Meal)
TTITLE10=Mother´s Bad Luck Child
TTITLE11=Funky Butt
TTITLE12=Sad Letter
TTITLE13=Someday I´m Gonna Ketch You
TTITLE14=Love Weapon
TTITLE15=Garbage Man
TTITLE16=After Hours
TTITLE17=Whiskey No Good
TTITLE18=Muddy Waters´ Shuffle
EXTD=
EXTT0=
EXTT1=
EXTT2=
EXTT3=
EXTT4=
EXTT5=
EXTT6=
EXTT7=
EXTT8=
EXTT9=
EXTT10=
EXTT11=
EXTT12=
EXTT13=
EXTT14=
EXTT15=
EXTT16=
EXTT17=
EXTT18=
PLAYORDER=
